<svg height="32" version="1" viewBox="0 0 32 32" width="32" xmlns="http://www.w3.org/2000/svg"><path d="M29.99 5.586c1.333 2.384.894 5.193.37 6.854-2.84 9.048-15.65 8.556-17.504 8.556-1.85 0-2.282 1.684-2.282 1.684L9.19 28.57c-.377 2.067-2.3 1.965-2.3 1.965H2.72c-.104 0-.2-.007-.292-.02-.02.38.034 1.484 1.423 1.484h4.17s1.922.104 2.3-1.963l1.383-5.89s.433-1.685 2.283-1.685 14.664.493 17.504-8.555c.634-2.022 1.15-5.737-1.5-8.32z" fill="#187FAE"/><path d="M7.902 27.286l1.385-5.89s.43-1.683 2.283-1.683c1.85 0 14.663.49 17.5-8.556C30.11 7.85 30.833.007 17.896.007H8.552S6.61-.084 6.13 1.93L.023 27.638s-.262 1.612 1.41 1.612h4.17s1.923.104 2.3-1.964zm3.523-14.952l1.24-5.226s.396-1.42 1.672-1.63c1.276-.212 3.448.036 4.008.14 3.63.665 2.857 4.015 2.857 4.015-.72 5.17-8.968 4.452-8.968 4.452-1.294-.455-.81-1.75-.81-1.75z" fill="#19597F"/></svg>
