<svg height="32" version="1" viewBox="0 0 32 32" width="32" xmlns="http://www.w3.org/2000/svg"><path d="M31.993 6.077c-1.177.523-2.44.876-3.77 1.033 1.355-.812 2.396-2.098 2.887-3.63-1.27.75-2.673 1.3-4.168 1.592C25.744 3.797 24.038 3 22.15 3c-3.626 0-6.563 2.938-6.563 6.563 0 .514.057 1.016.17 1.496C10.3 10.784 5.464 8.17 2.226 4.2c-.564.97-.888 2.098-.888 3.3 0 2.28 1.158 4.287 2.918 5.465-1.075-.035-2.087-.33-2.972-.82v.08c0 3.182 2.26 5.835 5.264 6.438-.55.15-1.13.23-1.73.23-.423 0-.833-.04-1.233-.117.834 2.606 3.26 4.504 6.13 4.558-2.245 1.76-5.075 2.81-8.15 2.81-.53 0-1.053-.03-1.566-.09C2.906 27.913 6.356 29 10.063 29c12.072 0 18.675-10 18.675-18.675 0-.284-.008-.568-.02-.85 1.283-.925 2.395-2.08 3.276-3.398z" fill="#55ACEE"/></svg>
